<svg xmlns="http://www.w3.org/2000/svg"  viewBox="0 0 128 128" width="64px" height="64px"><path fill="#fff" d="M59,5.69L16,30.51c-3.09,1.79-5,5.09-5,8.66v49.65c0,3.57,1.91,6.87,5,8.66l43,24.83 c3.09,1.79,6.91,1.79,10,0l43-24.83c3.09-1.79,5-5.09,5-8.66V39.17c0-3.57-1.91-6.87-5-8.66L69,5.69C65.91,3.9,62.09,3.9,59,5.69z"/><path fill="#71c2ff" d="M113.5,27.92L102,21.28c-1.44-0.83-3.27-0.34-4.1,1.1c-0.83,1.44-0.34,3.27,1.1,4.1l11.5,6.64 c0.17,0.1,0.32,0.21,0.48,0.32L99,40.35c-1.43,0.83-1.93,2.66-1.1,4.1c0.56,0.96,1.56,1.5,2.6,1.5c0.51,0,1.02-0.13,1.5-0.4 l11.96-6.91c0.01,0.18,0.04,0.35,0.04,0.53v49.65c0,2.49-1.34,4.82-3.5,6.06l-43,24.83c-0.16,0.09-0.33,0.17-0.5,0.25V104.6 c0-1.66-1.34-3-3-3s-3,1.34-3,3v15.36c-0.17-0.08-0.34-0.15-0.5-0.25L49,113.07c-1.43-0.83-3.27-0.34-4.1,1.1 c-0.83,1.44-0.34,3.27,1.1,4.1l11.5,6.64c2,1.16,4.25,1.74,6.5,1.74s4.5-0.58,6.5-1.74l43-24.83c4.01-2.31,6.5-6.63,6.5-11.26 V39.17C120,34.54,117.51,30.23,113.5,27.92z"/><path fill="#444b54" d="M92,46.1L70,33.4l21.75-12.56c0.51-0.3,0.91-0.72,1.16-1.21c0.02-0.03,0.04-0.07,0.06-0.1 c0.83-1.44,0.34-3.27-1.1-4.1L70.5,3.09c-4.01-2.31-8.99-2.31-13,0l-43,24.83C10.49,30.23,8,34.54,8,39.17v49.65 c0,4.63,2.49,8.94,6.5,11.26l21.26,12.27l0.26,0.15c0.46,0.26,0.97,0.39,1.48,0.39c0.52,0,1.04-0.14,1.51-0.41 c0.92-0.54,1.49-1.52,1.49-2.59V84.5l22,12.7c0.93,0.54,2.07,0.54,3,0L92,81.9c0.93-0.54,1.5-1.53,1.5-2.6V48.7 C93.5,47.63,92.93,46.64,92,46.1z M60.5,8.29c1.08-0.62,2.29-0.94,3.5-0.94s2.42,0.31,3.5,0.94l17,9.81l-22,12.7 c-0.93,0.54-1.5,1.53-1.5,2.6s0.57,2.06,1.5,2.6l22,12.7L64,60.56L17.02,33.43c0.16-0.11,0.31-0.23,0.48-0.32L60.5,8.29z M39,76.7 c-0.93-0.54-2.07-0.54-3,0s-1.5,1.53-1.5,2.6v25.4l-17-9.81c-2.16-1.25-3.5-3.57-3.5-6.06V39.17c0-0.18,0.02-0.36,0.04-0.53 L61,65.75V89.4L39,76.7z M67,89.4V65.75L87.5,53.9v23.67L67,89.4z"/></svg>